<svg width="2116" height="492" viewBox="0 0 2116 492" fill="none" xmlns="http://www.w3.org/2000/svg">
<path d="M405 52C502.667 115.5 740.483 209.236 932.5 178.5C1223 132 1536.5 187.5 1859.5 491" stroke="#EAEFF3" stroke-width="2" stroke-linecap="round" stroke-linejoin="round"/>
<path d="M401 15C498.667 78.5 736.483 172.236 928.5 141.5C1219 95 1532.5 150.5 1855.5 454" stroke="#EAEFF3" stroke-width="2" stroke-linecap="round" stroke-linejoin="round"/>
<path d="M445 1C542.667 64.5 780.483 158.236 972.5 127.5C1263 81 1576.5 136.5 1899.5 440" stroke="#EAEFF3" stroke-width="2" stroke-linecap="round" stroke-linejoin="round"/>
<path d="M1 90C123.657 187.523 432 245.499 611 177.499C790 109.499 851.5 104 917.5 103.999C1075.52 103.996 1303 124 1638 351.5" stroke="#EAEFF3" stroke-width="2" stroke-linecap="round" stroke-linejoin="round"/>
<path d="M478 52C600.657 149.523 909 207.499 1088 139.499C1267 71.4986 1328.5 66.0004 1394.5 65.999C1552.52 65.9957 1780 86 2115 313.5" stroke="#EAEFF3" stroke-width="2" stroke-linecap="round" stroke-linejoin="round"/>
</svg>
